#!OML:ASF F:\VICON\USERDATA\INSTALL\rory3\rory3.ASF
:FULLY-SPECIFIED
:DEGREES
537
root 10.0114 17.2147 17.4269 7.37915 1.51453 -2.30707
lowerback 5.8972 4.43429 1.72999
upperback 0.837871 6.15902 4.87667
thorax -2.78993 3.07825 3.55506
lowerneck -11.931 -7.64852 -16.3811
upperneck 14.0089 -9.45537 12.463
head 7.6664 -4.41836 5.77967
rclavicle -2.74323e-014 -3.33958e-014
rhumerus -11.3696 -10.1387 -58.9406
rradius 63.3599
rwrist -24.165
rhand -18.2245 18.2926
rfingers 7.12502
rthumb 8.05365 -11.534
lclavicle -2.74323e-014 -3.33958e-014
lhumerus -72.2936 35.757 11.9987
lradius 29.0228
lwrist 5.22743
lhand -14.9835 402.698
lfingers 7.12502
lthumb 11.1807 72.3797
rfemur 1.57015 3.63405 30.7422
rtibia 27.3733
rfoot -17.1653 15.4283
rtoes 41.7961
lfemur -40.5412 -0.0142634 -22.777
ltibia 36.3852
lfoot -16.0062 -4.75008
ltoes -5.33148
538
root 10.0003 17.1843 17.5683 7.27616 1.36438 -2.34844
lowerback 5.86282 4.61907 1.34013
upperback 0.893031 6.37553 4.81029
thorax -2.75987 3.19061 3.68729
lowerneck -11.7632 -7.78275 -16.3621
upperneck 13.9474 -9.67962 12.5353
head 7.65452 -4.52386 5.7745
rclavicle -6.06293e-014 -2.54444e-014
rhumerus -12.3432 -9.84728 -59.3204
rradius 62.7171
rwrist -24.0342
rhand -17.9635 18.3738
rfingers 7.12502
rthumb 8.30559 -11.443
lclavicle -6.06293e-014 -2.54444e-014
lhumerus -72.898 35.5662 12.4835
lradius 28.792
lwrist 5.65927
lhand -13.7246 402.553
lfingers 7.12502
lthumb 12.3947 72.1657
rfemur 2.13615 3.74453 30.86
rtibia 27.5244
rfoot -17.2156 15.3713
rtoes 41.8286
lfemur -40.1794 -0.777319 -22.6939
ltibia 36.6013
lfoot -15.8274 -4.9945
ltoes -4.6605
539
root 9.9987 17.1561 17.7105 7.18967 1.159 -2.17117
lowerback 5.81327 4.82004 0.829052
upperback 0.948326 6.60353 4.65917
thorax -2.72771 3.30911 3.79876
lowerneck -11.9614 -8.15359 -16.2135
upperneck 14.1737 -10.1785 12.3621
head 7.82355 -4.75983 5.61815
rclavicle -8.70677e-014 1.59028e-014
rhumerus -13.4181 -9.48376 -59.7044
rradius 62.1613
rwrist -24.0106
rhand -17.7315 18.2719
rfingers 7.12502
rthumb 8.52941 -11.5359
lclavicle -8.70677e-014 1.59028e-014
lhumerus -73.9078 35.9327 12.0028
lradius 28.2701
lwrist 4.95205
lhand -12.5514 402.171
lfingers 7.12502
lthumb 13.5256 71.7112
rfemur 2.69183 3.69087 30.6077
rtibia 27.6297
rfoot -16.9137 15.6875
rtoes 40.9871
lfemur -39.7769 -1.60089 -22.8191
ltibia 36.8418
lfoot -15.7448 -5.24011
ltoes -5.78269
540
root 10.0042 17.1325 17.8623 7.07183 0.845521 -2.26457
lowerback 5.64045 5.05089 0.737645
upperback 1.08162 6.88927 4.52438
thorax -2.50551 3.45047 3.7065
lowerneck -12.1794 -8.46621 -16.283
upperneck 14.3182 -10.6132 12.5534
head 7.9924 -4.94657 5.62928
rclavicle -3.45885e-014 -4.92986e-014
rhumerus -14.3664 -9.39551 -60.2106
rradius 61.4798
rwrist -23.5773
rhand -17.6579 17.9067
rfingers 7.12502
rthumb 8.60051 -11.8981
lclavicle -3.45885e-014 -4.92986e-014
lhumerus -74.9371 36.5207 11.2686
lradius 27.6544
lwrist 4.02394
lhand -11.6196 401.718
lfingers 7.12502
lthumb 14.4236 71.1963
rfemur 3.28367 3.50911 30.5121
rtibia 27.6453
rfoot -16.3793 16.4279
rtoes 38.7162
lfemur -39.3315 -2.05575 -22.7648
ltibia 37.1354
lfoot -15.1688 -5.71857
ltoes -5.3645
541
root 10.0019 17.118 18.0226 6.93093 0.457203 -2.4001
lowerback 5.58913 5.31134 0.625347
upperback 1.08147 7.22428 4.37902
thorax -2.49295 3.61771 3.59369
lowerneck -11.7075 -8.41001 -16.4885
upperneck 14.1245 -10.6402 13.0212
head 7.88908 -4.95076 5.83346
rclavicle -9.76033e-014 -3.18055e-014
rhumerus -15.4412 -9.48282 -60.8117
rradius 60.6065
rwrist -22.8748
rhand -17.2675 17.6149
rfingers 7.12502
rthumb 8.97721 -12.1741
lclavicle -9.76033e-014 -3.18055e-014
lhumerus -75.3341 36.3595 11.6733
lradius 27.3045
lwrist 4.20657
lhand -10.8632 401.668
lfingers 7.12502
lthumb 15.1523 71.0937
rfemur 3.96359 3.36205 30.4745
rtibia 27.5694
rfoot -15.6479 17.1115
rtoes 37.4001
lfemur -38.9184 -2.45434 -22.5708
ltibia 37.4973
lfoot -13.6459 -6.16294
ltoes -3.24406
542
root 9.99462 17.1161 18.1782 6.75159 0.0626083 -2.54795
lowerback 5.64977 5.59262 0.489133
upperback 1.07559 7.58928 4.2336
thorax -2.55304 3.80004 3.47979
lowerneck -10.9423 -8.14153 -16.4751
upperneck 13.7048 -10.3955 13.2629
head 7.59037 -4.84403 5.96692
rclavicle 9.16397e-014 1.59028e-014
rhumerus -16.5569 -9.64477 -61.4506
rradius 59.6829
rwrist -22.1341
rhand -16.3936 18.117
rfingers 7.12502
rthumb 9.82046 -11.634
lclavicle 9.16397e-014 1.59028e-014
lhumerus -75.2076 35.932 12.8824
lradius 27.0677
lwrist 4.93848
lhand -10.319 401.737
lfingers 7.12502
lthumb 15.6764 71.1224
rfemur 4.69124 3.26693 30.4799
rtibia 27.5593
rfoot -14.6014 17.5486
rtoes 37.8427
lfemur -38.5794 -2.83963 -22.2354
ltibia 37.8962
lfoot -11.4635 -6.07491
ltoes -2.28123
543
root 9.99833 17.1201 18.3404 6.57382 -0.353569 -2.74726
lowerback 5.39806 5.82864 0.525516
upperback 1.26188 7.88661 4.10169
thorax -2.21491 3.94564 3.3371
lowerneck -10.5544 -8.01309 -16.3236
upperneck 13.3864 -10.2866 13.3294
head 7.39638 -4.79402 5.98738
rclavicle 1.11518e-013 3.18055e-014
rhumerus -17.4157 -9.90753 -62.2235
rradius 58.6443
rwrist -21.1666
rhand -15.5623 18.9971
rfingers 7.12502
rthumb 10.6224 -10.7144
lclavicle 1.11518e-013 3.18055e-014
lhumerus -75.1254 35.8975 14.0102
lradius 26.792
lwrist 5.34676
lhand -10.1311 401.869
lfingers 7.12502
lthumb 15.8574 71.2395
rfemur 5.28273 3.06054 30.4096
rtibia 27.8886
rfoot -13.4412 18.2704
rtoes 38.4042
lfemur -38.1989 -2.92775 -21.9567
ltibia 38.2317
lfoot -9.55435 -5.53461
ltoes -1.67288
544
root 9.99678 17.1242 18.4935 6.56305 -0.742753 -2.57919
lowerback 5.08333 6.03588 0.153589
upperback 1.43042 8.12257 3.84432
thorax -1.89338 4.0631 3.3019
lowerneck -10.4021 -8.09552 -16.3234
upperneck 13.1591 -10.4523 13.609
head 7.33903 -4.85863 6.0634
rclavicle -1.38553e-013 -1.11319e-014
rhumerus -18.0674 -10.3356 -63.1239
rradius 57.4072
rwrist -20.0526
rhand -14.8118 19.5772
rfingers 7.12502
rthumb 11.3462 -10.0959
lclavicle -1.38553e-013 -1.11319e-014
lhumerus -75.8788 36.8314 13.3443
lradius 26.0762
lwrist 4.00348
lhand -9.97095 401.536
lfingers 7.12502
lthumb 16.0116 70.8943
rfemur 5.45464 3.08632 30.0128
rtibia 28.4265
rfoot -11.8552 18.9349
rtoes 38.4921
lfemur -37.9656 -2.84661 -22.1341
ltibia 38.5568
lfoot -8.45783 -4.77479
ltoes -0.750663
